/* XPM */
static char * C:\Users\pino_\Desktop\COIN\MONETA\FORMATI\Moneta16_xpm[] = {
"16 16 194 2",
"  	c None",
". 	c #B38F23",
"+ 	c #AB893D",
"@ 	c #A48440",
"# 	c #9F8031",
"$ 	c #B39E44",
"% 	c #92863D",
"& 	c #7F682E",
"* 	c #734C1A",
"= 	c #663E11",
"- 	c #5F390E",
"; 	c #54360F",
"> 	c #775930",
", 	c #A28336",
"' 	c #755A23",
") 	c #7A4C07",
"! 	c #815007",
"~ 	c #7B4806",
"{ 	c #673703",
"] 	c #6A3603",
"^ 	c #6B3402",
"/ 	c #502301",
"( 	c #4E2D0A",
"_ 	c #94702C",
": 	c #7B4E16",
"< 	c #844A04",
"[ 	c #845005",
"} 	c #7F5206",
"| 	c #895807",
"1 	c #7C4A05",
"2 	c #804704",
"3 	c #703A02",
"4 	c #683402",
"5 	c #5B2A01",
"6 	c #4B2C0A",
"7 	c #906A2C",
"8 	c #734C17",
"9 	c #743D02",
"0 	c #7C4403",
"a 	c #854D04",
"b 	c #835304",
"c 	c #8D5E06",
"d 	c #865805",
"e 	c #925905",
"f 	c #734003",
"g 	c #733E02",
"h 	c #653301",
"i 	c #532701",
"j 	c #5B432B",
"k 	c #947836",
"l 	c #7C4402",
"m 	c #6A3801",
"n 	c #422101",
"o 	c #412201",
"p 	c #794903",
"q 	c #946105",
"r 	c #754F03",
"s 	c #7D5304",
"t 	c #462902",
"u 	c #462601",
"v 	c #673801",
"w 	c #603101",
"x 	c #562A01",
"y 	c #938B85",
"z 	c #AB7F31",
"A 	c #816225",
"B 	c #8D5202",
"C 	c #6C3C01",
"D 	c #2C1401",
"E 	c #1B0B01",
"F 	c #4C2901",
"G 	c #855303",
"H 	c #744D02",
"I 	c #573A03",
"J 	c #211302",
"K 	c #371F02",
"L 	c #854E02",
"M 	c #7D4601",
"N 	c #592E01",
"O 	c #815622",
"P 	c #976C26",
"Q 	c #95681E",
"R 	c #9C6103",
"S 	c #603602",
"T 	c #241001",
"U 	c #2E1601",
"V 	c #1C0B01",
"W 	c #4B2A01",
"X 	c #4E2E02",
"Y 	c #2B1A02",
"Z 	c #342102",
"` 	c #663E02",
" .	c #814C02",
"..	c #7A4501",
"+.	c #85623A",
"@.	c #966B32",
"#.	c #96661A",
"$.	c #9F6602",
"%.	c #663C02",
"&.	c #271201",
"*.	c #3A1D01",
"=.	c #341901",
"-.	c #291301",
";.	c #2F1801",
">.	c #482B02",
",.	c #422A02",
"'.	c #2B1B02",
").	c #664303",
"!.	c #9B6402",
"~.	c #925902",
"{.	c #916B39",
"].	c #93682D",
"^.	c #946318",
"/.	c #9D6402",
"(.	c #926001",
"_.	c #361D01",
":.	c #5B3301",
"<.	c #663C01",
"[.	c #3F2001",
"}.	c #905C01",
"|.	c #5D3A02",
"1.	c #382302",
"2.	c #977102",
"3.	c #8C6402",
"4.	c #A36A02",
"5.	c #975C20",
"6.	c #845F1E",
"7.	c #A76901",
"8.	c #875601",
"9.	c #4E2C02",
"0.	c #6D4202",
"a.	c #815001",
"b.	c #663B01",
"c.	c #724301",
"d.	c #8E5801",
"e.	c #603802",
"f.	c #4E3002",
"g.	c #8F6B02",
"h.	c #8C6901",
"i.	c #986701",
"j.	c #B39B77",
"k.	c #654625",
"l.	c #8A5701",
"m.	c #835301",
"n.	c #664300",
"o.	c #825801",
"p.	c #7E5201",
"q.	c #976001",
"r.	c #744800",
"s.	c #8F5901",
"t.	c #7E5000",
"u.	c #8B5E01",
"v.	c #7E5B01",
"w.	c #927001",
"x.	c #B58B03",
"y.	c #BDB8B0",
"z.	c #6F5119",
"A.	c #996100",
"B.	c #915F00",
"C.	c #946401",
"D.	c #8C6101",
"E.	c #A36D01",
"F.	c #845500",
"G.	c #774B00",
"H.	c #6F4500",
"I.	c #794F00",
"J.	c #8B6001",
"K.	c #B88A01",
"L.	c #BEA873",
"M.	c #755313",
"N.	c #A36A00",
"O.	c #966500",
"P.	c #A06F00",
"Q.	c #A17201",
"R.	c #8B5D00",
"S.	c #7F5300",
"T.	c #724900",
"U.	c #754A00",
"V.	c #8B5500",
"W.	c #71481D",
"X.	c #A76E00",
"Y.	c #8B5F00",
"Z.	c #A17200",
"`.	c #C88F00",
" +	c #8A5E00",
".+	c #B27600",
"++	c #7B4200",
"@+	c #C5AB77",
"#+	c #8A5323",
"$+	c #CCA54C",
"%+	c #D1A948",
"&+	c #D1AB52",
"*+	c #CEB786",
"=+	c #D2CDC2",
"            . + @ #             ",
"        $ % & * = - ; >         ",
"      , ' ) ! ~ { ] ^ / (       ",
"    _ : < [ } | 1 2 3 4 5 6     ",
"  7 8 9 0 a b c d e f g h i j   ",
"  k l m n o p q r s t u v w x y ",
"z A B C D E F G H I J K L M N O ",
"P Q R S T U V W X Y Z Y `  ...+.",
"@.#.$.%.&.*.=.-.;.>.,.'.).!.~.{.",
"].^./.(._.:.<.-.[.}.|.1.2.3.4.5.",
"  6.7.8.9.0.a.b.c.d.e.f.g.h.i.j.",
"  k.l.m.n.o.p.q.r.s.t.u.v.w.x.y.",
"    z.A.B.C.D.E.F.G.H.I.J.K.L.  ",
"      M.N.O.P.Q.R.S.T.U.V.      ",
"        W.X.Y.Z.`. +.+++@+      ",
"            #+$+%+&+*+=+        "};
