/* XPM */
static char * C:\Users\pino_\Desktop\COIN\MONETA\FORMATI\Moneta32_xpm[] = {
"32 32 626 2",
"  	c None",
". 	c #AC8A01",
"+ 	c #A27810",
"@ 	c #936314",
"# 	c #835210",
"$ 	c #7D4E13",
"% 	c #6F430D",
"& 	c #5B3C12",
"* 	c #6E4208",
"= 	c #734906",
"- 	c #866301",
"; 	c #A38306",
"> 	c #926E20",
", 	c #774D13",
"' 	c #754406",
") 	c #7E4506",
"! 	c #7C4005",
"~ 	c #733A04",
"{ 	c #6A3403",
"] 	c #693303",
"^ 	c #5C2B02",
"/ 	c #542501",
"( 	c #4E2503",
"_ 	c #4A2D0B",
": 	c #6A4704",
"< 	c #AA8104",
"[ 	c #8E651A",
"} 	c #764A09",
"| 	c #774A07",
"1 	c #865309",
"2 	c #6B4105",
"3 	c #774606",
"4 	c #834906",
"5 	c #7D4205",
"6 	c #763D04",
"7 	c #673303",
"8 	c #6B3502",
"9 	c #5D2C02",
"0 	c #562701",
"a 	c #491F01",
"b 	c #4F2B04",
"c 	c #715201",
"d 	c #99690B",
"e 	c #7D4F15",
"f 	c #814B06",
"g 	c #824F06",
"h 	c #855408",
"i 	c #805107",
"j 	c #7E4D06",
"k 	c #784705",
"l 	c #7B4405",
"m 	c #6F3B03",
"n 	c #703A03",
"o 	c #7C4003",
"p 	c #683402",
"q 	c #653102",
"r 	c #592901",
"s 	c #522401",
"t 	c #502301",
"u 	c #432204",
"v 	c #573905",
"w 	c #795D2C",
"x 	c #7D4609",
"y 	c #7B4304",
"z 	c #834A05",
"A 	c #7C4905",
"B 	c #8D5807",
"C 	c #784C05",
"D 	c #825307",
"E 	c #794D06",
"F 	c #855306",
"G 	c #814D06",
"H 	c #864C05",
"I 	c #774003",
"J 	c #7F4304",
"K 	c #783E03",
"L 	c #643202",
"M 	c #673202",
"N 	c #5F2D01",
"O 	c #552601",
"P 	c #502401",
"Q 	c #442002",
"R 	c #513306",
"S 	c #895810",
"T 	c #6F3B05",
"U 	c #7D4103",
"V 	c #7D4403",
"W 	c #834904",
"X 	c #704003",
"Y 	c #895305",
"Z 	c #825205",
"` 	c #895907",
" .	c #7F5206",
"..	c #845506",
"+.	c #7A4C05",
"@.	c #784804",
"#.	c #784404",
"$.	c #844804",
"%.	c #7D4303",
"&.	c #723C02",
"*.	c #763D02",
"=.	c #653201",
"-.	c #5E2D01",
";.	c #552701",
">.	c #532601",
",.	c #472202",
"'.	c #553606",
").	c #8D6002",
"!.	c #693D0A",
"~.	c #874903",
"{.	c #794303",
"].	c #794503",
"^.	c #955805",
"/.	c #8A5605",
"(.	c #865705",
"_.	c #7F5405",
":.	c #956308",
"<.	c #825405",
"[.	c #7E5005",
"}.	c #7E4D04",
"|.	c #894F04",
"1.	c #854A04",
"2.	c #733E02",
"3.	c #7F4403",
"4.	c #6B3702",
"5.	c #653301",
"6.	c #612F01",
"7.	c #572801",
"8.	c #4E2401",
"9.	c #472604",
"0.	c #6C4D02",
"a.	c #6C3D06",
"b.	c #6D3901",
"c.	c #713B02",
"d.	c #673501",
"e.	c #783F02",
"f.	c #774102",
"g.	c #724002",
"h.	c #945604",
"i.	c #7B4A03",
"j.	c #8A5705",
"k.	c #835605",
"l.	c #875B06",
"m.	c #8E6006",
"n.	c #815405",
"o.	c #845505",
"p.	c #8F5805",
"q.	c #884F04",
"r.	c #7A4503",
"s.	c #804603",
"t.	c #7A4202",
"u.	c #693701",
"v.	c #603001",
"w.	c #542801",
"x.	c #462D0A",
"y.	c #935D04",
"z.	c #794203",
"A.	c #7D4302",
"B.	c #6A3801",
"C.	c #6E3A01",
"D.	c #794002",
"E.	c #723D02",
"F.	c #6E3C02",
"G.	c #8D5203",
"H.	c #8E5403",
"I.	c #824F03",
"J.	c #835304",
"K.	c #825604",
"L.	c #7D5504",
"M.	c #7E5504",
"N.	c #7C5204",
"O.	c #8E5C05",
"P.	c #8A5504",
"Q.	c #7F4A03",
"R.	c #7F4803",
"S.	c #854A03",
"T.	c #713D02",
"U.	c #713C01",
"V.	c #623201",
"W.	c #623101",
"X.	c #582B01",
"Y.	c #502701",
"Z.	c #63410D",
"`.	c #895414",
" +	c #834902",
".+	c #7E4602",
"++	c #723E01",
"@+	c #6E3B01",
"#+	c #733E01",
"$+	c #663501",
"%+	c #4B2701",
"&+	c #512C01",
"*+	c #512D02",
"=+	c #583302",
"-+	c #835203",
";+	c #925F05",
">+	c #885C04",
",+	c #805804",
"'+	c #775103",
")+	c #906105",
"!+	c #5E3C03",
"~+	c #553302",
"{+	c #563102",
"]+	c #6A3B02",
"^+	c #723F01",
"/+	c #5E2F01",
"(+	c #5A2C01",
"_+	c #4F330C",
":+	c #A27105",
"<+	c #8C570F",
"[+	c #8D5103",
"}+	c #814902",
"|+	c #794302",
"1+	c #744001",
"2+	c #774201",
"3+	c #703D01",
"4+	c #1B0A01",
"5+	c #1C0B01",
"6+	c #1E0D01",
"7+	c #3D2101",
"8+	c #7D5003",
"9+	c #795003",
"0+	c #825904",
"a+	c #885F04",
"b+	c #8B6004",
"c+	c #503403",
"d+	c #211202",
"e+	c #211101",
"f+	c #200F01",
"g+	c #7C4702",
"h+	c #784402",
"i+	c #784301",
"j+	c #6F3C01",
"k+	c #613201",
"l+	c #633301",
"m+	c #582B02",
"n+	c #785304",
"o+	c #996510",
"p+	c #935A03",
"q+	c #935803",
"r+	c #824B02",
"s+	c #7A4602",
"t+	c #5E3401",
"u+	c #864C02",
"v+	c #6B3A01",
"w+	c #1A0A01",
"x+	c #1C0C01",
"y+	c #6B3F02",
"z+	c #935C03",
"A+	c #805302",
"B+	c #835903",
"C+	c #825B03",
"D+	c #805905",
"E+	c #211402",
"F+	c #211302",
"G+	c #895203",
"H+	c #8A5102",
"I+	c #754201",
"J+	c #733F01",
"K+	c #6C3901",
"L+	c #633803",
"M+	c #88550E",
"N+	c #9A6003",
"O+	c #9C5E03",
"P+	c #784601",
"Q+	c #794501",
"R+	c #814A01",
"S+	c #7F4801",
"T+	c #190900",
"U+	c #1B0B01",
"V+	c #1D0C01",
"W+	c #3F2101",
"X+	c #8B5602",
"Y+	c #885602",
"Z+	c #8B5B03",
"`+	c #7F5703",
" @	c #4A3103",
".@	c #211201",
"+@	c #8C5703",
"@@	c #834F02",
"#@	c #8D5402",
"$@	c #794601",
"%@	c #774301",
"&@	c #6D3A01",
"*@	c #693C09",
"=@	c #936D27",
"-@	c #9B6102",
";@	c #885502",
">@	c #935C02",
",@	c #845002",
"'@	c #814C02",
")@	c #6C3D02",
"!@	c #220F01",
"~@	c #683C02",
"{@	c #774802",
"]@	c #7B4D03",
"^@	c #6F4703",
"/@	c #281902",
"(@	c #7A4F03",
"_@	c #7D4D03",
":@	c #7F4D02",
"<@	c #895302",
"[@	c #7B4801",
"}@	c #824C01",
"|@	c #764201",
"1@	c #6B4713",
"2@	c #865414",
"3@	c #9D6202",
"4@	c #A06502",
"5@	c #8E5B02",
"6@	c #8A5702",
"7@	c #8B5502",
"8@	c #4F2B01",
"9@	c #1F0E01",
"0@	c #201001",
"a@	c #523302",
"b@	c #9B6402",
"c@	c #8C5702",
"d@	c #774801",
"e@	c #764501",
"f@	c #804B01",
"g@	c #704B13",
"h@	c #8D641F",
"i@	c #774B01",
"j@	c #8D5A02",
"k@	c #966102",
"l@	c #9A6302",
"m@	c #8B5102",
"n@	c #542D01",
"o@	c #592F01",
"p@	c #6D3F02",
"q@	c #7E5303",
"r@	c #493002",
"s@	c #8C6204",
"t@	c #956903",
"u@	c #B17803",
"v@	c #996302",
"w@	c #915B02",
"x@	c #8B5401",
"y@	c #8A5401",
"z@	c #795217",
"A@	c #865011",
"B@	c #9C6001",
"C@	c #895501",
"D@	c #8E5B01",
"E@	c #9B6502",
"F@	c #794E01",
"G@	c #553102",
"H@	c #190A01",
"I@	c #563A03",
"J@	c #926802",
"K@	c #825801",
"L@	c #8F5C02",
"M@	c #A16502",
"N@	c #965D01",
"O@	c #804F11",
"P@	c #724007",
"Q@	c #9A5E01",
"R@	c #835201",
"S@	c #976101",
"T@	c #855601",
"U@	c #905F01",
"V@	c #845402",
"W@	c #704402",
"X@	c #1E0C01",
"Y@	c #492701",
"Z@	c #613801",
"`@	c #4D2901",
" #	c #251101",
".#	c #6B4102",
"+#	c #714702",
"@#	c #3C2302",
"##	c #6F5003",
"$#	c #7C5B03",
"%#	c #946E02",
"&#	c #966C02",
"*#	c #946502",
"=#	c #AA7002",
"-#	c #A16702",
";#	c #835112",
">#	c #73430B",
",#	c #915901",
"'#	c #7C4C01",
")#	c #8F5A01",
"!#	c #925F01",
"~#	c #8F5E01",
"{#	c #976501",
"]#	c #855702",
"^#	c #5E3501",
"/#	c #804F01",
"(#	c #683E01",
"_#	c #2E1501",
":#	c #552F01",
"<#	c #8C5C01",
"[#	c #472902",
"}#	c #211301",
"|#	c #926C03",
"1#	c #8C6B02",
"2#	c #896802",
"3#	c #A07702",
"4#	c #956C02",
"5#	c #B17902",
"6#	c #A97002",
"7#	c #925B17",
"8#	c #784D09",
"9#	c #825208",
"0#	c #9A5F01",
"a#	c #925B01",
"b#	c #7B4E01",
"c#	c #986301",
"d#	c #996601",
"e#	c #9C6802",
"f#	c #211001",
"g#	c #643A02",
"h#	c #754800",
"i#	c #251001",
"j#	c #724401",
"k#	c #865301",
"l#	c #8C5A01",
"m#	c #452701",
"n#	c #976E02",
"o#	c #987402",
"p#	c #9D7902",
"q#	c #836401",
"r#	c #9F7702",
"s#	c #B58402",
"t#	c #AD7B14",
"u#	c #975F0B",
"v#	c #6E4F17",
"w#	c #875401",
"x#	c #9E6201",
"y#	c #875501",
"z#	c #996301",
"A#	c #9C6701",
"B#	c #673E02",
"C#	c #8B5901",
"D#	c #855401",
"E#	c #7A4C01",
"F#	c #321801",
"G#	c #845100",
"H#	c #885601",
"I#	c #422401",
"J#	c #8A6102",
"K#	c #8C6901",
"L#	c #8F6E01",
"M#	c #8E6E01",
"N#	c #B78D02",
"O#	c #B78B02",
"P#	c #AA8D36",
"Q#	c #5C3608",
"R#	c #784D01",
"S#	c #905A01",
"T#	c #815000",
"U#	c #925E01",
"V#	c #986401",
"W#	c #774B02",
"X#	c #593502",
"Y#	c #583502",
"Z#	c #603902",
"`#	c #956201",
" $	c #875701",
".$	c #895701",
"+$	c #714301",
"@$	c #764901",
"#$	c #704500",
"$$	c #7C4D00",
"%$	c #784801",
"&$	c #533001",
"*$	c #563302",
"=$	c #795002",
"-$	c #886301",
";$	c #9A7501",
">$	c #9B7901",
",$	c #B38E02",
"'$	c #B28B06",
")$	c #936211",
"!$	c #4D2D05",
"~$	c #7C4F00",
"{$	c #966000",
"]$	c #8D5A00",
"^$	c #8F5C00",
"/$	c #916001",
"($	c #9A6901",
"_$	c #966701",
":$	c #946701",
"<$	c #9B6A01",
"[$	c #895A01",
"}$	c #774D00",
"|$	c #794D00",
"1$	c #6C4400",
"2$	c #7C4E00",
"3$	c #825200",
"4$	c #7D4F00",
"5$	c #835500",
"6$	c #976401",
"7$	c #956601",
"8$	c #9E7001",
"9$	c #8A6601",
"0$	c #BA9001",
"a$	c #BC9502",
"b$	c #855F17",
"c$	c #5F3B0A",
"d$	c #5E3C05",
"e$	c #7A4F00",
"f$	c #855400",
"g$	c #8E5B00",
"h$	c #8D5C00",
"i$	c #976500",
"j$	c #9C6B01",
"k$	c #976801",
"l$	c #956801",
"m$	c #966801",
"n$	c #906000",
"o$	c #986400",
"p$	c #855600",
"q$	c #6F4700",
"r$	c #774B00",
"s$	c #865500",
"t$	c #8E5D00",
"u$	c #875B00",
"v$	c #8A6000",
"w$	c #C28C01",
"x$	c #B98C01",
"y$	c #B79521",
"z$	c #94630D",
"A$	c #4D2D0A",
"B$	c #714D03",
"C$	c #845600",
"D$	c #875700",
"E$	c #8A5A00",
"F$	c #8F5F00",
"G$	c #9B6900",
"H$	c #956800",
"I$	c #9F7001",
"J$	c #916700",
"K$	c #926500",
"L$	c #9D6A00",
"M$	c #916000",
"N$	c #764C00",
"O$	c #764B00",
"P$	c #724800",
"Q$	c #7F5000",
"R$	c #7E5300",
"S$	c #885D00",
"T$	c #BE8701",
"U$	c #BF8E0E",
"V$	c #8F5C14",
"W$	c #4C2C0A",
"X$	c #744E03",
"Y$	c #885A00",
"Z$	c #865700",
"`$	c #875A00",
" %	c #936500",
".%	c #966900",
"+%	c #946900",
"@%	c #8D6400",
"#%	c #A17000",
"$%	c #996800",
"%%	c #7B5100",
"&%	c #905F00",
"*%	c #7F5300",
"=%	c #6C4500",
"-%	c #744B00",
";%	c #865600",
">%	c #B27500",
",%	c #B77D00",
"'%	c #B9830B",
")%	c #8D5514",
"!%	c #4F2D0B",
"~%	c #79550A",
"{%	c #8A5B00",
"]%	c #AC7100",
"^%	c #895A00",
"/%	c #8F6100",
"(%	c #916400",
"_%	c #906600",
":%	c #936900",
"<%	c #9D6E00",
"[%	c #825800",
"}%	c #754C00",
"|%	c #A86F00",
"1%	c #A66D00",
"2%	c #AE7200",
"3%	c #AC7613",
"4%	c #83490F",
"5%	c #61370A",
"6%	c #5F3A0A",
"7%	c #956301",
"8%	c #AF7400",
"9%	c #B77C00",
"0%	c #C68900",
"a%	c #C98E00",
"b%	c #976B00",
"c%	c #9B7000",
"d%	c #966B00",
"e%	c #996B00",
"f%	c #C58800",
"g%	c #C18300",
"h%	c #AC7300",
"i%	c #AD7300",
"j%	c #A66E02",
"k%	c #A07321",
"l%	c #82450B",
"m%	c #65370F",
"n%	c #946B1F",
"o%	c #B27A0C",
"p%	c #BF8300",
"q%	c #C68A00",
"r%	c #C28B00",
"s%	c #CD9500",
"t%	c #C69200",
"u%	c #CA9400",
"v%	c #C08900",
"w%	c #C28700",
"x%	c #A87C26",
"y%	c #753D0A",
"z%	c #7B4310",
"A%	c #7B3F0C",
"B%	c #7C450D",
"C%	c #895513",
"D%	c #BD912D",
"E%	c #C1962F",
"F%	c #905D17",
"G%	c #8B5415",
"H%	c #874A10",
"I%	c #884A11",
"                                                                ",
"                      . + @ # $ % & * = -                       ",
"                  ; > , ' ) ! ~ { ] ^ / ( _ :                   ",
"              < [ } | 1 2 3 4 5 6 7 8 9 0 / a b c               ",
"            d e f g h h i j k l m n o p q r s t u v             ",
"          w x y z A B C D E F G H I J K L M N O P Q R           ",
"        S T U V W X Y Z `  ...+.@.#.$.%.&.*.=.-.;.>.,.'.        ",
"      ).!.*.*.~.{.].^./.(._.:.<.[.}.|.1.2.3.4.5.6.7.8.9.0.      ",
"      a.b.c.d.e.f.g.h.i.j.k.l.m.n.o.p.q.r.s.t.u.5.v.8.w.x.      ",
"    y.z.A.B.C.D.E.F.G.H.I.J.K.L.M.N.O.P.Q.R.S.T.U.V.W.X.Y.Z.    ",
"    `. +.+++@+#+$+%+&+*+=+-+;+>+,+'+)+!+~+{+*+]+^+@+u./+(+_+    ",
"  :+<+[+}+|+1+2+3+4+5+6+7+I.8+9+0+a+b+c+d+e+f+g+h+i+j+k+l+m+n+  ",
"  o+p+q+r+s+t+u+v+w+4+x+6+y+z+A+B+C+D+E+F+d+e+G+H+s+I+J+K+l+L+  ",
"  M+N+N+O+P+Q+R+S+T+w+U+V+W+X+Y+Z+`+ @E+E+F+.@+@@@#@$@%@^+&@*@  ",
"  =@-@;@>@,@'@g+)@T+T+!@5+V+~@{@]@^@F+E+/@E+F+(@_@:@<@[@}@|@1@  ",
"  2@3@4@5@6@7@8@V+4+T+T+w+5+V+9@0@e+.@F+E+E+F+F+a@b@c@d@e@f@g@  ",
"  h@3@i@j@k@l@7@m@x+w+n@o@4+5+)@p@0@e+q@r@E+E+s@t@u@v@w@x@y@z@  ",
"  A@B@C@D@E@F@G@9@6+5+w+T+H@4+5+6+9@0@e+.@F+E+E+I@J@K@L@M@N@O@  ",
"  P@Q@R@S@T@U@V@W@9@X@Y@Z@`@H@4+5+ #.#+#@#.@E+##$#%#&#*#=#-#;#  ",
"  >#,#'#)#!#~#{#]#f+9@^#/#(#_#w+4+:#)#<#[#e+}#|#1#2#3#4#5#6#7#  ",
"  8#9#0#a#b#c#d#e#f#f+g#)#h#^#T+i#j#k#l#m#f#.@n#o#p#q#r#s#t#u#  ",
"    v#w#x#y#z#A#U@f#f#B#C#D#E#F#:#h#G#H#I#f+f#J#K#L#M#N#O#P#    ",
"    Q#R#S#T#U#V#W#X#Y#Z#`# $.$+$@$#$$$%$&+&$*$=$-$;$>$,$'$)$    ",
"      !$~${$]$^$/$($_$:$<$[$}$^$|$1$2$3$4$5$6$7$8$9$0$a$b$      ",
"      c$d$e$f$g$h$i$j$k$l$m$n$o$p$q$2$4$r$s$t$u$v$w$x$y$z$      ",
"        A$B$C$D$E$F$G$H$I$J$K$L$M$N$C$O$P$Q$D$R$S$T$U$V$        ",
"          W$X$Y$D$Z$`$ %.%+%@%#%$%%%&%*%=%-%;%>%,%'%)%          ",
"            !%~%{%]%^%/%(%_%_%:%<%[%F$Y$}%|%1%2%3%4%            ",
"              5%6%7%8%9%0%a%b%c%d%e%f%g%h%i%j%k%l%              ",
"                  m%n%o%p%q%r%s%t%u%v%w%[.x%y%                  ",
"                      z%A%B%C%D%E%F%G%H%I%                      ",
"                                                                "};
